<svg xmlns="http://www.w3.org/2000/svg" width="1200" height="330" viewBox="0 0 1200 330" role="img" aria-labelledby="title desc">
  <title id="title">Activity dashboard</title>
  <desc id="desc">Live profile summary generated from GitHub public data.</desc>
  
    <style>
      .ui{font-family:Segoe UI,Arial,sans-serif}
      .mono{font-family:Consolas,Monaco,monospace}
      .title{fill:#F2B35D;font:800 30px Segoe UI,Arial,sans-serif}
      .muted{fill:#8B949E;font:14px Consolas,Monaco,monospace}
      .body{fill:#F5F2E8;font:15px Segoe UI,Arial,sans-serif}
      .small{fill:#F5F2E8;font:12px Consolas,Monaco,monospace}
      .cyan{fill:#7DCFFF}.gold{fill:#F2B35D}.ember{fill:#F7768E}
    </style>
  
  <rect width="1200" height="330" rx="16" fill="#0D1117"/>
  <rect x="22" y="22" width="1156" height="286" rx="14" fill="#101826" stroke="#214E68"/>
  <text x="54" y="70" class="title">Activity Dashboard</text>
  <text x="54" y="98" class="muted">generated from GitHub public data :: stable local SVG</text>
  <g transform="translate(54 130)">
    <g transform="translate(0 0)">
    <rect width="176" height="68" rx="12" fill="#0D1117" stroke="#214E68"/>
    <text x="18" y="25" class="small" fill="#8B949E">PUBLIC REPOS</text>
    <text x="18" y="52" class="mono" font-size="24" font-weight="800" fill="#7DCFFF">60</text>
  </g>
    <g transform="translate(210 0)">
    <rect width="176" height="68" rx="12" fill="#0D1117" stroke="#214E68"/>
    <text x="18" y="25" class="small" fill="#8B949E">ORIGINAL</text>
    <text x="18" y="52" class="mono" font-size="24" font-weight="800" fill="#F2B35D">23</text>
  </g>
    <g transform="translate(420 0)">
    <rect width="176" height="68" rx="12" fill="#0D1117" stroke="#214E68"/>
    <text x="18" y="25" class="small" fill="#8B949E">FORKED RESEARCH</text>
    <text x="18" y="52" class="mono" font-size="24" font-weight="800" fill="#F7768E">37</text>
  </g>
    <g transform="translate(0 92)">
    <rect width="176" height="68" rx="12" fill="#0D1117" stroke="#214E68"/>
    <text x="18" y="25" class="small" fill="#8B949E">FOLLOWERS</text>
    <text x="18" y="52" class="mono" font-size="24" font-weight="800" fill="#7DCFFF">14</text>
  </g>
    <g transform="translate(210 92)">
    <rect width="176" height="68" rx="12" fill="#0D1117" stroke="#214E68"/>
    <text x="18" y="25" class="small" fill="#8B949E">STARS</text>
    <text x="18" y="52" class="mono" font-size="24" font-weight="800" fill="#F2B35D">26</text>
  </g>
    <g transform="translate(420 92)">
    <rect width="176" height="68" rx="12" fill="#0D1117" stroke="#214E68"/>
    <text x="18" y="25" class="small" fill="#8B949E">LAST UPDATE</text>
    <text x="18" y="52" class="mono" font-size="24" font-weight="800" fill="#F7768E">2026-06-19</text>
  </g>
  </g>
  <text x="760" y="94" class="muted">language radar</text>
  <text x="760" y="127" class="small">Docs</text><rect x="860" y="112" width="210" height="16" rx="8" fill="#7DCFFF" opacity=".86"/><text x="1084" y="125" class="small">42</text><text x="760" y="155" class="small">Python</text><rect x="860" y="140" width="36" height="16" rx="8" fill="#F2B35D" opacity=".86"/><text x="910" y="153" class="small">7</text><text x="760" y="183" class="small">JavaScript</text><rect x="860" y="168" width="36" height="16" rx="8" fill="#F7768E" opacity=".86"/><text x="910" y="181" class="small">3</text><text x="760" y="211" class="small">Java</text><rect x="860" y="196" width="36" height="16" rx="8" fill="#78DCE8" opacity=".86"/><text x="910" y="209" class="small">3</text><text x="760" y="239" class="small">Vue</text><rect x="860" y="224" width="36" height="16" rx="8" fill="#A9DC76" opacity=".86"/><text x="910" y="237" class="small">2</text><text x="760" y="267" class="small">HTML</text><rect x="860" y="252" width="36" height="16" rx="8" fill="#AB9DF2" opacity=".86"/><text x="910" y="265" class="small">1</text>
  <path d="M692 82V274" stroke="#214E68"/>
</svg>